<?xml version="1.0" encoding="UTF-8"?>
<svg width="256" height="256" xmlns="http://www.w3.org/2000/svg" xmlns:svg="http://www.w3.org/2000/svg">
 <!-- Created with SVG-edit - http://svg-edit.googlecode.com/ -->
 <title>Red Error Icon</title>
 <g>
  <title>Layer 1</title>
  <g stroke="null" id="svg_1">
   <rect stroke="null" id="svg_2" x="0" y="0" opacity="0.3" fill="rgba(105,77,255,0)" height="256.17189" width="256.17189"/>
   <path stroke="null" id="svg_3" fill="#fff" d="m128.085945,21.347657a106.738287,106.738287 0 1 0 106.738287,106.738287a106.738287,106.738287 0 0 0 -106.738287,-106.738287z"/>
   <path stroke="null" id="svg_4" fill="#3339a9" d="m128.085945,32.021486a96.064459,96.064459 0 1 0 96.064459,96.064459a96.064459,96.064459 0 0 0 -96.064459,-96.064459zm-11.314258,47.498538a16.010743,16.010743 0 0 1 27.325002,11.314258a15.263575,15.263575 0 0 1 -4.696485,11.314258a16.010743,16.010743 0 0 1 -22.521779,0a15.797267,15.797267 0 0 1 0,-22.628517l-0.106738,0zm36.077541,112.608893l-47.818753,0l0,-5.550391l3.842578,0a13.235548,13.235548 0 0 0 3.308887,-0.747168a6.297559,6.297559 0 0 0 3.415625,-2.668457a9.179493,9.179493 0 0 0 0.960645,-4.589746l0,-44.830081a9.072754,9.072754 0 0 0 -1.174121,-4.696485a10.033399,10.033399 0 0 0 -2.988672,-3.202149a15.904005,15.904005 0 0 0 -4.162793,-1.707813a27.004787,27.004787 0 0 0 -5.0167,-1.067383l0,-5.657129l38.319045,0l0,59.773441a8.645801,8.645801 0 0 0 1.174121,4.589746a6.937989,6.937989 0 0 0 3.308887,2.775195l3.308887,1.174121a22.735255,22.735255 0 0 0 3.842578,0.747168l-0.320215,5.657129z"/>
  </g>
 </g>
</svg>